<svg xmlns="http://www.w3.org/2000/svg" width="1920" height="1080" viewBox="0 0 1920 1080"><defs><radialGradient id="g1"><stop offset="0%" stop-color="#FFBE00" stop-opacity="0.11"/><stop offset="70%" stop-color="#FFBE00" stop-opacity="0.044"/><stop offset="100%" stop-color="#FFBE00" stop-opacity="0"/></radialGradient></defs><rect width="1920" height="1080" fill="#000000"/><line x1="0" y1="0" x2="0" y2="1080" stroke="#FFFFFF" stroke-opacity="0.03" stroke-width="1"/><line x1="60" y1="0" x2="60" y2="1080" stroke="#FFFFFF" stroke-opacity="0.03" stroke-width="1"/><line x1="120" y1="0" x2="120" y2="1080" stroke="#FFFFFF" stroke-opacity="0.03" stroke-width="1"/><line x1="180" y1="0" x2="180" y2="1080" stroke="#FFFFFF" stroke-opacity="0.03" stroke-width="1"/><line x1="240" y1="0" x2="240" y2="1080" stroke="#FFFFFF" stroke-opacity="0.03" stroke-width="1"/><line x1="300" y1="0" x2="300" y2="1080" stroke="#FFFFFF" stroke-opacity="0.03" stroke-width="1"/><line x1="360" y1="0" x2="360" y2="1080" stroke="#FFFFFF" stroke-opacity="0.03" stroke-width="1"/><line x1="420" y1="0" x2="420" y2="1080" stroke="#FFFFFF" stroke-opacity="0.03" stroke-width="1"/><line x1="480" y1="0" x2="480" y2="1080" stroke="#FFFFFF" stroke-opacity="0.03" stroke-width="1"/><line x1="540" y1="0" x2="540" y2="1080" stroke="#FFFFFF" stroke-opacity="0.03" stroke-width="1"/><line x1="600" y1="0" x2="600" y2="1080" stroke="#FFFFFF" stroke-opacity="0.03" stroke-width="1"/><line x1="660" y1="0" x2="660" y2="1080" stroke="#FFFFFF" stroke-opacity="0.03" stroke-width="1"/><line x1="720" y1="0" x2="720" y2="1080" stroke="#FFFFFF" stroke-opacity="0.03" stroke-width="1"/><line x1="780" y1="0" x2="780" y2="1080" stroke="#FFFFFF" stroke-opacity="0.03" stroke-width="1"/><line x1="840" y1="0" x2="840" y2="1080" stroke="#FFFFFF" stroke-opacity="0.03" stroke-width="1"/><line x1="900" y1="0" x2="900" y2="1080" stroke="#FFFFFF" stroke-opacity="0.03" stroke-width="1"/><line x1="960" y1="0" x2="960" y2="1080" stroke="#FFFFFF" stroke-opacity="0.03" stroke-width="1"/><line x1="1020" y1="0" x2="1020" y2="1080" stroke="#FFFFFF" stroke-opacity="0.03" stroke-width="1"/><line x1="1080" y1="0" x2="1080" y2="1080" stroke="#FFFFFF" stroke-opacity="0.03" stroke-width="1"/><line x1="1140" y1="0" x2="1140" y2="1080" stroke="#FFFFFF" stroke-opacity="0.03" stroke-width="1"/><line x1="1200" y1="0" x2="1200" y2="1080" stroke="#FFFFFF" stroke-opacity="0.03" stroke-width="1"/><line x1="1260" y1="0" x2="1260" y2="1080" stroke="#FFFFFF" stroke-opacity="0.03" stroke-width="1"/><line x1="1320" y1="0" x2="1320" y2="1080" stroke="#FFFFFF" stroke-opacity="0.03" stroke-width="1"/><line x1="1380" y1="0" x2="1380" y2="1080" stroke="#FFFFFF" stroke-opacity="0.03" stroke-width="1"/><line x1="1440" y1="0" x2="1440" y2="1080" stroke="#FFFFFF" stroke-opacity="0.03" stroke-width="1"/><line x1="1500" y1="0" x2="1500" y2="1080" stroke="#FFFFFF" stroke-opacity="0.03" stroke-width="1"/><line x1="1560" y1="0" x2="1560" y2="1080" stroke="#FFFFFF" stroke-opacity="0.03" stroke-width="1"/><line x1="1620" y1="0" x2="1620" y2="1080" stroke="#FFFFFF" stroke-opacity="0.03" stroke-width="1"/><line x1="1680" y1="0" x2="1680" y2="1080" stroke="#FFFFFF" stroke-opacity="0.03" stroke-width="1"/><line x1="1740" y1="0" x2="1740" y2="1080" stroke="#FFFFFF" stroke-opacity="0.03" stroke-width="1"/><line x1="1800" y1="0" x2="1800" y2="1080" stroke="#FFFFFF" stroke-opacity="0.03" stroke-width="1"/><line x1="1860" y1="0" x2="1860" y2="1080" stroke="#FFFFFF" stroke-opacity="0.03" stroke-width="1"/><line x1="1920" y1="0" x2="1920" y2="1080" stroke="#FFFFFF" stroke-opacity="0.03" stroke-width="1"/><line x1="0" y1="0" x2="1920" y2="0" stroke="#FFFFFF" stroke-opacity="0.03" stroke-width="1"/><line x1="0" y1="60" x2="1920" y2="60" stroke="#FFFFFF" stroke-opacity="0.03" stroke-width="1"/><line x1="0" y1="120" x2="1920" y2="120" stroke="#FFFFFF" stroke-opacity="0.03" stroke-width="1"/><line x1="0" y1="180" x2="1920" y2="180" stroke="#FFFFFF" stroke-opacity="0.03" stroke-width="1"/><line x1="0" y1="240" x2="1920" y2="240" stroke="#FFFFFF" stroke-opacity="0.03" stroke-width="1"/><line x1="0" y1="300" x2="1920" y2="300" stroke="#FFFFFF" stroke-opacity="0.03" stroke-width="1"/><line x1="0" y1="360" x2="1920" y2="360" stroke="#FFFFFF" stroke-opacity="0.03" stroke-width="1"/><line x1="0" y1="420" x2="1920" y2="420" stroke="#FFFFFF" stroke-opacity="0.03" stroke-width="1"/><line x1="0" y1="480" x2="1920" y2="480" stroke="#FFFFFF" stroke-opacity="0.03" stroke-width="1"/><line x1="0" y1="540" x2="1920" y2="540" stroke="#FFFFFF" stroke-opacity="0.03" stroke-width="1"/><line x1="0" y1="600" x2="1920" y2="600" stroke="#FFFFFF" stroke-opacity="0.03" stroke-width="1"/><line x1="0" y1="660" x2="1920" y2="660" stroke="#FFFFFF" stroke-opacity="0.03" stroke-width="1"/><line x1="0" y1="720" x2="1920" y2="720" stroke="#FFFFFF" stroke-opacity="0.03" stroke-width="1"/><line x1="0" y1="780" x2="1920" y2="780" stroke="#FFFFFF" stroke-opacity="0.03" stroke-width="1"/><line x1="0" y1="840" x2="1920" y2="840" stroke="#FFFFFF" stroke-opacity="0.03" stroke-width="1"/><line x1="0" y1="900" x2="1920" y2="900" stroke="#FFFFFF" stroke-opacity="0.03" stroke-width="1"/><line x1="0" y1="960" x2="1920" y2="960" stroke="#FFFFFF" stroke-opacity="0.03" stroke-width="1"/><line x1="0" y1="1020" x2="1920" y2="1020" stroke="#FFFFFF" stroke-opacity="0.03" stroke-width="1"/><line x1="0" y1="1080" x2="1920" y2="1080" stroke="#FFFFFF" stroke-opacity="0.03" stroke-width="1"/><text x="110" y="112" font-family="Inter, DejaVu Sans, sans-serif" font-size="24" font-weight="600" fill="#FFBE00" text-anchor="start" letter-spacing="2.9">EP 04 · BANCO DE DADOS</text><text x="1810" y="112" font-family="Inter, DejaVu Sans, sans-serif" font-size="24" font-weight="600" fill="#666666" text-anchor="end" letter-spacing="2.9">PRANCHA 05/12</text><text x="960.0" y="230" font-family="Inter, DejaVu Sans, sans-serif" font-size="54" font-weight="800" fill="#FFFFFF" text-anchor="middle" letter-spacing="-1.4">As três famílias de banco</text><circle cx="400.0" cy="550.0" r="300" fill="url(#g1)"/><rect x="160.0" y="330" width="480" height="440" rx="16" fill="#0D0D0D" stroke="#2A2A2A" stroke-width="2"/><rect x="300.0" y="400" width="200" height="130" rx="8" fill="#1A1A1A" stroke="#A0A0A0" stroke-width="2"/><line x1="300.0" y1="443.3333333333333" x2="500.0" y2="443.3333333333333" stroke="#A0A0A0" stroke-width="1.5" stroke-opacity="0.7"/><line x1="366.6666666666667" y1="400" x2="366.6666666666667" y2="530" stroke="#A0A0A0" stroke-width="1.5" stroke-opacity="0.7"/><line x1="300.0" y1="486.6666666666667" x2="500.0" y2="486.6666666666667" stroke="#A0A0A0" stroke-width="1.5" stroke-opacity="0.7"/><line x1="433.33333333333337" y1="400" x2="433.33333333333337" y2="530" stroke="#A0A0A0" stroke-width="1.5" stroke-opacity="0.7"/><text x="400.0" y="630" font-family="Inter, DejaVu Sans, sans-serif" font-size="40" font-weight="800" fill="#FFBE00" text-anchor="middle" letter-spacing="-1.0">relacional</text><text x="400.0" y="686" font-family="Inter, DejaVu Sans, sans-serif" font-size="24" font-weight="400" fill="#A0A0A0" text-anchor="middle">tabelas: linhas e colunas</text><rect x="720.0" y="330" width="480" height="440" rx="16" fill="#0D0D0D" stroke="#2A2A2A" stroke-width="2"/><rect x="890.0" y="390" width="140" height="150" rx="8" fill="#1A1A1A" stroke="#A0A0A0" stroke-width="2"/><line x1="912.0" y1="424" x2="1008.0" y2="424" stroke="#A0A0A0" stroke-width="2" stroke-opacity="0.7"/><line x1="912.0" y1="454" x2="1008.0" y2="454" stroke="#A0A0A0" stroke-width="2" stroke-opacity="0.7"/><line x1="912.0" y1="484" x2="1008.0" y2="484" stroke="#A0A0A0" stroke-width="2" stroke-opacity="0.7"/><line x1="912.0" y1="514" x2="962.0" y2="514" stroke="#A0A0A0" stroke-width="2" stroke-opacity="0.7"/><text x="960.0" y="630" font-family="Inter, DejaVu Sans, sans-serif" font-size="40" font-weight="800" fill="#FFFFFF" text-anchor="middle" letter-spacing="-1.0">documento</text><text x="960.0" y="686" font-family="Inter, DejaVu Sans, sans-serif" font-size="24" font-weight="400" fill="#A0A0A0" text-anchor="middle">blocos soltos · JSON</text><rect x="1280.0" y="330" width="480" height="440" rx="16" fill="#0D0D0D" stroke="#2A2A2A" stroke-width="2"/><rect x="1380.0" y="398" width="110" height="44" rx="9999" fill="#1A1A1A" stroke="#A0A0A0" stroke-width="1.5"/><text x="1435.0" y="426" font-family="Inter, DejaVu Sans, sans-serif" font-size="15" font-weight="600" fill="#A0A0A0" text-anchor="middle" letter-spacing="1.8">CHAVE</text><line x1="1502.0" y1="420" x2="1548.0" y2="420" stroke="#A0A0A0" stroke-width="2"/><path d="M1548.0 420 L1535.4 426.1 L1535.4 413.9 Z" fill="#A0A0A0"/><rect x="1560.0" y="398" width="110" height="44" rx="9999" fill="#1A1A1A" stroke="#A0A0A0" stroke-width="1.5"/><text x="1615.0" y="426" font-family="Inter, DejaVu Sans, sans-serif" font-size="15" font-weight="600" fill="#A0A0A0" text-anchor="middle" letter-spacing="1.8">VALOR</text><rect x="1380.0" y="468" width="110" height="44" rx="9999" fill="#1A1A1A" stroke="#A0A0A0" stroke-width="1.5"/><text x="1435.0" y="496" font-family="Inter, DejaVu Sans, sans-serif" font-size="15" font-weight="600" fill="#A0A0A0" text-anchor="middle" letter-spacing="1.8">CHAVE</text><line x1="1502.0" y1="490" x2="1548.0" y2="490" stroke="#A0A0A0" stroke-width="2"/><path d="M1548.0 490 L1535.4 496.1 L1535.4 483.9 Z" fill="#A0A0A0"/><rect x="1560.0" y="468" width="110" height="44" rx="9999" fill="#1A1A1A" stroke="#A0A0A0" stroke-width="1.5"/><text x="1615.0" y="496" font-family="Inter, DejaVu Sans, sans-serif" font-size="15" font-weight="600" fill="#A0A0A0" text-anchor="middle" letter-spacing="1.8">VALOR</text><text x="1520.0" y="630" font-family="Inter, DejaVu Sans, sans-serif" font-size="40" font-weight="800" fill="#FFFFFF" text-anchor="middle" letter-spacing="-1.0">chave-valor</text><text x="1520.0" y="686" font-family="Inter, DejaVu Sans, sans-serif" font-size="24" font-weight="400" fill="#A0A0A0" text-anchor="middle">dicionário: direto e rápido</text><text x="960.0" y="950" font-family="Inter, DejaVu Sans, sans-serif" font-size="37" font-weight="400" fill="#FFFFFF" text-anchor="middle" font-style="italic">Três famílias bastam para entender o que a IA sugere.</text><text x="110" y="1038" font-family="Inter, DejaVu Sans, sans-serif" font-size="21" fill="#666666">guifav.github.io   ·   guilhermefavaron.com.br   ·   youtube: ia-aplicada</text></svg>