<svg xmlns="http://www.w3.org/2000/svg" width="1920" height="1080" viewBox="0 0 1920 1080"><defs><radialGradient id="g1"><stop offset="0%" stop-color="#FFBE00" stop-opacity="0.11"/><stop offset="70%" stop-color="#FFBE00" stop-opacity="0.044"/><stop offset="100%" stop-color="#FFBE00" stop-opacity="0"/></radialGradient></defs><rect width="1920" height="1080" fill="#000000"/><line x1="0" y1="0" x2="0" y2="1080" stroke="#FFFFFF" stroke-opacity="0.03" stroke-width="1"/><line x1="60" y1="0" x2="60" y2="1080" stroke="#FFFFFF" stroke-opacity="0.03" stroke-width="1"/><line x1="120" y1="0" x2="120" y2="1080" stroke="#FFFFFF" stroke-opacity="0.03" stroke-width="1"/><line x1="180" y1="0" x2="180" y2="1080" stroke="#FFFFFF" stroke-opacity="0.03" stroke-width="1"/><line x1="240" y1="0" x2="240" y2="1080" stroke="#FFFFFF" stroke-opacity="0.03" stroke-width="1"/><line x1="300" y1="0" x2="300" y2="1080" stroke="#FFFFFF" stroke-opacity="0.03" stroke-width="1"/><line x1="360" y1="0" x2="360" y2="1080" stroke="#FFFFFF" stroke-opacity="0.03" stroke-width="1"/><line x1="420" y1="0" x2="420" y2="1080" stroke="#FFFFFF" stroke-opacity="0.03" stroke-width="1"/><line x1="480" y1="0" x2="480" y2="1080" stroke="#FFFFFF" stroke-opacity="0.03" stroke-width="1"/><line x1="540" y1="0" x2="540" y2="1080" stroke="#FFFFFF" stroke-opacity="0.03" stroke-width="1"/><line x1="600" y1="0" x2="600" y2="1080" stroke="#FFFFFF" stroke-opacity="0.03" stroke-width="1"/><line x1="660" y1="0" x2="660" y2="1080" stroke="#FFFFFF" stroke-opacity="0.03" stroke-width="1"/><line x1="720" y1="0" x2="720" y2="1080" stroke="#FFFFFF" stroke-opacity="0.03" stroke-width="1"/><line x1="780" y1="0" x2="780" y2="1080" stroke="#FFFFFF" stroke-opacity="0.03" stroke-width="1"/><line x1="840" y1="0" x2="840" y2="1080" stroke="#FFFFFF" stroke-opacity="0.03" stroke-width="1"/><line x1="900" y1="0" x2="900" y2="1080" stroke="#FFFFFF" stroke-opacity="0.03" stroke-width="1"/><line x1="960" y1="0" x2="960" y2="1080" stroke="#FFFFFF" stroke-opacity="0.03" stroke-width="1"/><line x1="1020" y1="0" x2="1020" y2="1080" stroke="#FFFFFF" stroke-opacity="0.03" stroke-width="1"/><line x1="1080" y1="0" x2="1080" y2="1080" stroke="#FFFFFF" stroke-opacity="0.03" stroke-width="1"/><line x1="1140" y1="0" x2="1140" y2="1080" stroke="#FFFFFF" stroke-opacity="0.03" stroke-width="1"/><line x1="1200" y1="0" x2="1200" y2="1080" stroke="#FFFFFF" stroke-opacity="0.03" stroke-width="1"/><line x1="1260" y1="0" x2="1260" y2="1080" stroke="#FFFFFF" stroke-opacity="0.03" stroke-width="1"/><line x1="1320" y1="0" x2="1320" y2="1080" stroke="#FFFFFF" stroke-opacity="0.03" stroke-width="1"/><line x1="1380" y1="0" x2="1380" y2="1080" stroke="#FFFFFF" stroke-opacity="0.03" stroke-width="1"/><line x1="1440" y1="0" x2="1440" y2="1080" stroke="#FFFFFF" stroke-opacity="0.03" stroke-width="1"/><line x1="1500" y1="0" x2="1500" y2="1080" stroke="#FFFFFF" stroke-opacity="0.03" stroke-width="1"/><line x1="1560" y1="0" x2="1560" y2="1080" stroke="#FFFFFF" stroke-opacity="0.03" stroke-width="1"/><line x1="1620" y1="0" x2="1620" y2="1080" stroke="#FFFFFF" stroke-opacity="0.03" stroke-width="1"/><line x1="1680" y1="0" x2="1680" y2="1080" stroke="#FFFFFF" stroke-opacity="0.03" stroke-width="1"/><line x1="1740" y1="0" x2="1740" y2="1080" stroke="#FFFFFF" stroke-opacity="0.03" stroke-width="1"/><line x1="1800" y1="0" x2="1800" y2="1080" stroke="#FFFFFF" stroke-opacity="0.03" stroke-width="1"/><line x1="1860" y1="0" x2="1860" y2="1080" stroke="#FFFFFF" stroke-opacity="0.03" stroke-width="1"/><line x1="1920" y1="0" x2="1920" y2="1080" stroke="#FFFFFF" stroke-opacity="0.03" stroke-width="1"/><line x1="0" y1="0" x2="1920" y2="0" stroke="#FFFFFF" stroke-opacity="0.03" stroke-width="1"/><line x1="0" y1="60" x2="1920" y2="60" stroke="#FFFFFF" stroke-opacity="0.03" stroke-width="1"/><line x1="0" y1="120" x2="1920" y2="120" stroke="#FFFFFF" stroke-opacity="0.03" stroke-width="1"/><line x1="0" y1="180" x2="1920" y2="180" stroke="#FFFFFF" stroke-opacity="0.03" stroke-width="1"/><line x1="0" y1="240" x2="1920" y2="240" stroke="#FFFFFF" stroke-opacity="0.03" stroke-width="1"/><line x1="0" y1="300" x2="1920" y2="300" stroke="#FFFFFF" stroke-opacity="0.03" stroke-width="1"/><line x1="0" y1="360" x2="1920" y2="360" stroke="#FFFFFF" stroke-opacity="0.03" stroke-width="1"/><line x1="0" y1="420" x2="1920" y2="420" stroke="#FFFFFF" stroke-opacity="0.03" stroke-width="1"/><line x1="0" y1="480" x2="1920" y2="480" stroke="#FFFFFF" stroke-opacity="0.03" stroke-width="1"/><line x1="0" y1="540" x2="1920" y2="540" stroke="#FFFFFF" stroke-opacity="0.03" stroke-width="1"/><line x1="0" y1="600" x2="1920" y2="600" stroke="#FFFFFF" stroke-opacity="0.03" stroke-width="1"/><line x1="0" y1="660" x2="1920" y2="660" stroke="#FFFFFF" stroke-opacity="0.03" stroke-width="1"/><line x1="0" y1="720" x2="1920" y2="720" stroke="#FFFFFF" stroke-opacity="0.03" stroke-width="1"/><line x1="0" y1="780" x2="1920" y2="780" stroke="#FFFFFF" stroke-opacity="0.03" stroke-width="1"/><line x1="0" y1="840" x2="1920" y2="840" stroke="#FFFFFF" stroke-opacity="0.03" stroke-width="1"/><line x1="0" y1="900" x2="1920" y2="900" stroke="#FFFFFF" stroke-opacity="0.03" stroke-width="1"/><line x1="0" y1="960" x2="1920" y2="960" stroke="#FFFFFF" stroke-opacity="0.03" stroke-width="1"/><line x1="0" y1="1020" x2="1920" y2="1020" stroke="#FFFFFF" stroke-opacity="0.03" stroke-width="1"/><line x1="0" y1="1080" x2="1920" y2="1080" stroke="#FFFFFF" stroke-opacity="0.03" stroke-width="1"/><text x="110" y="112" font-family="Inter, DejaVu Sans, sans-serif" font-size="24" font-weight="600" fill="#FFBE00" text-anchor="start" letter-spacing="2.9">EP 06 · GIT E VERSIONAMENTO</text><text x="1810" y="112" font-family="Inter, DejaVu Sans, sans-serif" font-size="24" font-weight="600" fill="#666666" text-anchor="end" letter-spacing="2.9">PRANCHA 06/13</text><text x="960.0" y="230" font-family="Inter, DejaVu Sans, sans-serif" font-size="54" font-weight="800" fill="#FFFFFF" text-anchor="middle" letter-spacing="-1.4">Uma main, vários ramais</text><circle cx="960" cy="560" r="300" fill="url(#g1)"/><line x1="240" y1="560" x2="1680" y2="560" stroke="#FFFFFF" stroke-width="3"/><circle cx="360" cy="560" r="15" fill="#0D0D0D" stroke="#FFFFFF" stroke-width="3"/><circle cx="660" cy="560" r="15" fill="#0D0D0D" stroke="#FFFFFF" stroke-width="3"/><circle cx="960" cy="560" r="15" fill="#0D0D0D" stroke="#FFFFFF" stroke-width="3"/><circle cx="1260" cy="560" r="15" fill="#0D0D0D" stroke="#FFFFFF" stroke-width="3"/><circle cx="1560" cy="560" r="15" fill="#0D0D0D" stroke="#FFFFFF" stroke-width="3"/><rect x="206.752" y="496.2" width="106.496" height="39.6" rx="9999" fill="#1A1A1A" stroke="#2A2A2A" stroke-width="1.5"/><text x="260" y="522.48" font-family="Inter, DejaVu Sans, sans-serif" font-size="18" font-weight="600" fill="#FFBE00" text-anchor="middle" letter-spacing="2.2">MAIN</text><path d="M660 560 C 730 290, 730 290, 810 290 L 1120 290" fill="none" stroke="#A0A0A0" stroke-width="2.5"/><circle cx="880" cy="290" r="12" fill="#0D0D0D" stroke="#A0A0A0" stroke-width="2.5"/><circle cx="1060" cy="290" r="12" fill="#0D0D0D" stroke="#A0A0A0" stroke-width="2.5"/><rect x="1088.288" y="272.4" width="363.424" height="35.2" rx="9999" fill="#1A1A1A" stroke="#2A2A2A" stroke-width="1.5"/><text x="1270" y="295.76" font-family="Inter, DejaVu Sans, sans-serif" font-size="16" font-weight="600" fill="#A0A0A0" text-anchor="middle" letter-spacing="1.9">EXPERIMENTO-NOVO-LAYOUT</text><path d="M960 560 C 1030 420, 1030 420, 1110 420 L 1360 420" fill="none" stroke="#A0A0A0" stroke-width="2.5"/><circle cx="1180" cy="420" r="12" fill="#0D0D0D" stroke="#A0A0A0" stroke-width="2.5"/><circle cx="1300" cy="420" r="12" fill="#0D0D0D" stroke="#A0A0A0" stroke-width="2.5"/><rect x="1397.728" y="402.4" width="224.544" height="35.2" rx="9999" fill="#1A1A1A" stroke="#2A2A2A" stroke-width="1.5"/><text x="1510" y="425.76" font-family="Inter, DejaVu Sans, sans-serif" font-size="16" font-weight="600" fill="#A0A0A0" text-anchor="middle" letter-spacing="1.9">FEATURE-LOGIN</text><path d="M660 560 C 730 740, 730 740, 810 740 L 1150 740" fill="none" stroke="#A0A0A0" stroke-width="2.5"/><circle cx="880" cy="740" r="12" fill="#0D0D0D" stroke="#A0A0A0" stroke-width="2.5"/><circle cx="1090" cy="740" r="12" fill="#0D0D0D" stroke="#A0A0A0" stroke-width="2.5"/><rect x="1201.616" y="722.4" width="196.768" height="35.2" rx="9999" fill="#1A1A1A" stroke="#2A2A2A" stroke-width="1.5"/><text x="1300" y="745.76" font-family="Inter, DejaVu Sans, sans-serif" font-size="16" font-weight="600" fill="#A0A0A0" text-anchor="middle" letter-spacing="1.9">FIX-BUG-123</text><text x="960.0" y="880" font-family="Inter, DejaVu Sans, sans-serif" font-size="27" font-weight="400" fill="#A0A0A0" text-anchor="middle">Criar branch não copia o projeto: é um ponteiro para uma foto que já existe.</text><text x="960.0" y="960" font-family="Inter, DejaVu Sans, sans-serif" font-size="37" font-weight="400" fill="#FFFFFF" text-anchor="middle" font-style="italic">Branch não copia nada. É um ponteiro com nome.</text><text x="110" y="1038" font-family="Inter, DejaVu Sans, sans-serif" font-size="21" fill="#666666">guifav.github.io   ·   guilhermefavaron.com.br   ·   youtube: ia-aplicada</text></svg>