<svg xmlns="http://www.w3.org/2000/svg" width="1920" height="1080" viewBox="0 0 1920 1080"><defs><radialGradient id="g1"><stop offset="0%" stop-color="#FFBE00" stop-opacity="0.11"/><stop offset="70%" stop-color="#FFBE00" stop-opacity="0.044"/><stop offset="100%" stop-color="#FFBE00" stop-opacity="0"/></radialGradient></defs><rect width="1920" height="1080" fill="#000000"/><line x1="0" y1="0" x2="0" y2="1080" stroke="#FFFFFF" stroke-opacity="0.03" stroke-width="1"/><line x1="60" y1="0" x2="60" y2="1080" stroke="#FFFFFF" stroke-opacity="0.03" stroke-width="1"/><line x1="120" y1="0" x2="120" y2="1080" stroke="#FFFFFF" stroke-opacity="0.03" stroke-width="1"/><line x1="180" y1="0" x2="180" y2="1080" stroke="#FFFFFF" stroke-opacity="0.03" stroke-width="1"/><line x1="240" y1="0" x2="240" y2="1080" stroke="#FFFFFF" stroke-opacity="0.03" stroke-width="1"/><line x1="300" y1="0" x2="300" y2="1080" stroke="#FFFFFF" stroke-opacity="0.03" stroke-width="1"/><line x1="360" y1="0" x2="360" y2="1080" stroke="#FFFFFF" stroke-opacity="0.03" stroke-width="1"/><line x1="420" y1="0" x2="420" y2="1080" stroke="#FFFFFF" stroke-opacity="0.03" stroke-width="1"/><line x1="480" y1="0" x2="480" y2="1080" stroke="#FFFFFF" stroke-opacity="0.03" stroke-width="1"/><line x1="540" y1="0" x2="540" y2="1080" stroke="#FFFFFF" stroke-opacity="0.03" stroke-width="1"/><line x1="600" y1="0" x2="600" y2="1080" stroke="#FFFFFF" stroke-opacity="0.03" stroke-width="1"/><line x1="660" y1="0" x2="660" y2="1080" stroke="#FFFFFF" stroke-opacity="0.03" stroke-width="1"/><line x1="720" y1="0" x2="720" y2="1080" stroke="#FFFFFF" stroke-opacity="0.03" stroke-width="1"/><line x1="780" y1="0" x2="780" y2="1080" stroke="#FFFFFF" stroke-opacity="0.03" stroke-width="1"/><line x1="840" y1="0" x2="840" y2="1080" stroke="#FFFFFF" stroke-opacity="0.03" stroke-width="1"/><line x1="900" y1="0" x2="900" y2="1080" stroke="#FFFFFF" stroke-opacity="0.03" stroke-width="1"/><line x1="960" y1="0" x2="960" y2="1080" stroke="#FFFFFF" stroke-opacity="0.03" stroke-width="1"/><line x1="1020" y1="0" x2="1020" y2="1080" stroke="#FFFFFF" stroke-opacity="0.03" stroke-width="1"/><line x1="1080" y1="0" x2="1080" y2="1080" stroke="#FFFFFF" stroke-opacity="0.03" stroke-width="1"/><line x1="1140" y1="0" x2="1140" y2="1080" stroke="#FFFFFF" stroke-opacity="0.03" stroke-width="1"/><line x1="1200" y1="0" x2="1200" y2="1080" stroke="#FFFFFF" stroke-opacity="0.03" stroke-width="1"/><line x1="1260" y1="0" x2="1260" y2="1080" stroke="#FFFFFF" stroke-opacity="0.03" stroke-width="1"/><line x1="1320" y1="0" x2="1320" y2="1080" stroke="#FFFFFF" stroke-opacity="0.03" stroke-width="1"/><line x1="1380" y1="0" x2="1380" y2="1080" stroke="#FFFFFF" stroke-opacity="0.03" stroke-width="1"/><line x1="1440" y1="0" x2="1440" y2="1080" stroke="#FFFFFF" stroke-opacity="0.03" stroke-width="1"/><line x1="1500" y1="0" x2="1500" y2="1080" stroke="#FFFFFF" stroke-opacity="0.03" stroke-width="1"/><line x1="1560" y1="0" x2="1560" y2="1080" stroke="#FFFFFF" stroke-opacity="0.03" stroke-width="1"/><line x1="1620" y1="0" x2="1620" y2="1080" stroke="#FFFFFF" stroke-opacity="0.03" stroke-width="1"/><line x1="1680" y1="0" x2="1680" y2="1080" stroke="#FFFFFF" stroke-opacity="0.03" stroke-width="1"/><line x1="1740" y1="0" x2="1740" y2="1080" stroke="#FFFFFF" stroke-opacity="0.03" stroke-width="1"/><line x1="1800" y1="0" x2="1800" y2="1080" stroke="#FFFFFF" stroke-opacity="0.03" stroke-width="1"/><line x1="1860" y1="0" x2="1860" y2="1080" stroke="#FFFFFF" stroke-opacity="0.03" stroke-width="1"/><line x1="1920" y1="0" x2="1920" y2="1080" stroke="#FFFFFF" stroke-opacity="0.03" stroke-width="1"/><line x1="0" y1="0" x2="1920" y2="0" stroke="#FFFFFF" stroke-opacity="0.03" stroke-width="1"/><line x1="0" y1="60" x2="1920" y2="60" stroke="#FFFFFF" stroke-opacity="0.03" stroke-width="1"/><line x1="0" y1="120" x2="1920" y2="120" stroke="#FFFFFF" stroke-opacity="0.03" stroke-width="1"/><line x1="0" y1="180" x2="1920" y2="180" stroke="#FFFFFF" stroke-opacity="0.03" stroke-width="1"/><line x1="0" y1="240" x2="1920" y2="240" stroke="#FFFFFF" stroke-opacity="0.03" stroke-width="1"/><line x1="0" y1="300" x2="1920" y2="300" stroke="#FFFFFF" stroke-opacity="0.03" stroke-width="1"/><line x1="0" y1="360" x2="1920" y2="360" stroke="#FFFFFF" stroke-opacity="0.03" stroke-width="1"/><line x1="0" y1="420" x2="1920" y2="420" stroke="#FFFFFF" stroke-opacity="0.03" stroke-width="1"/><line x1="0" y1="480" x2="1920" y2="480" stroke="#FFFFFF" stroke-opacity="0.03" stroke-width="1"/><line x1="0" y1="540" x2="1920" y2="540" stroke="#FFFFFF" stroke-opacity="0.03" stroke-width="1"/><line x1="0" y1="600" x2="1920" y2="600" stroke="#FFFFFF" stroke-opacity="0.03" stroke-width="1"/><line x1="0" y1="660" x2="1920" y2="660" stroke="#FFFFFF" stroke-opacity="0.03" stroke-width="1"/><line x1="0" y1="720" x2="1920" y2="720" stroke="#FFFFFF" stroke-opacity="0.03" stroke-width="1"/><line x1="0" y1="780" x2="1920" y2="780" stroke="#FFFFFF" stroke-opacity="0.03" stroke-width="1"/><line x1="0" y1="840" x2="1920" y2="840" stroke="#FFFFFF" stroke-opacity="0.03" stroke-width="1"/><line x1="0" y1="900" x2="1920" y2="900" stroke="#FFFFFF" stroke-opacity="0.03" stroke-width="1"/><line x1="0" y1="960" x2="1920" y2="960" stroke="#FFFFFF" stroke-opacity="0.03" stroke-width="1"/><line x1="0" y1="1020" x2="1920" y2="1020" stroke="#FFFFFF" stroke-opacity="0.03" stroke-width="1"/><line x1="0" y1="1080" x2="1920" y2="1080" stroke="#FFFFFF" stroke-opacity="0.03" stroke-width="1"/><text x="110" y="112" font-family="Inter, DejaVu Sans, sans-serif" font-size="24" font-weight="600" fill="#FFBE00" text-anchor="start" letter-spacing="2.9">EP 06 · GIT E VERSIONAMENTO</text><text x="1810" y="112" font-family="Inter, DejaVu Sans, sans-serif" font-size="24" font-weight="600" fill="#666666" text-anchor="end" letter-spacing="2.9">PRANCHA 08/12</text><text x="960.0" y="230" font-family="Inter, DejaVu Sans, sans-serif" font-size="54" font-weight="800" fill="#FFFFFF" text-anchor="middle" letter-spacing="-1.4">Pull request: a sala de revisão</text><rect x="260" y="320" width="1400" height="540" rx="16" fill="#0D0D0D" stroke="#2A2A2A" stroke-width="2"/><text x="320" y="398" font-family="Inter, DejaVu Sans, sans-serif" font-size="34" font-weight="700" fill="#FFFFFF" text-anchor="start">Adicionar tela de login</text><circle cx="1480" cy="388" r="200" fill="url(#g1)"/><rect x="1364.256" y="368.2" width="231.48799999999997" height="39.6" rx="9999" fill="#1A1A1A" stroke="#2A2A2A" stroke-width="1.5"/><text x="1480" y="394.48" font-family="Inter, DejaVu Sans, sans-serif" font-size="18" font-weight="600" fill="#FFBE00" text-anchor="middle" letter-spacing="2.2">PULL REQUEST</text><line x1="320" y1="438" x2="1600" y2="438" stroke="#2A2A2A" stroke-width="2"/><text x="320" y="492" font-family="Inter, DejaVu Sans, sans-serif" font-size="18" font-weight="600" fill="#A0A0A0" text-anchor="start" letter-spacing="2.2">DIFF · LINHA POR LINHA</text><text x="320" y="552" font-family="Inter, DejaVu Sans, sans-serif" font-size="26" font-weight="400" fill="#666666" text-anchor="start">−  botão sem verificação de senha</text><text x="320" y="604" font-family="Inter, DejaVu Sans, sans-serif" font-size="26" font-weight="400" fill="#FFFFFF" text-anchor="start">+  verifica a senha antes de entrar</text><text x="320" y="656" font-family="Inter, DejaVu Sans, sans-serif" font-size="26" font-weight="400" fill="#FFFFFF" text-anchor="start">+  mensagem de erro clara</text><text x="320" y="744" font-family="Inter, DejaVu Sans, sans-serif" font-size="18" font-weight="600" fill="#666666" text-anchor="start" letter-spacing="2.2">3 ARQUIVOS MODIFICADOS · 2 COMMITS</text><rect x="1020" y="466" width="580" height="140" rx="12" fill="#1A1A1A" stroke="#2A2A2A" stroke-width="2"/><text x="1050" y="504" font-family="Inter, DejaVu Sans, sans-serif" font-size="16" font-weight="600" fill="#A0A0A0" text-anchor="start" letter-spacing="1.9">COMENTÁRIO DO REVISOR</text><text x="1050" y="556" font-family="Inter, DejaVu Sans, sans-serif" font-size="25" font-weight="400" fill="#FFFFFF" text-anchor="start" font-style="italic">“por que você fez assim?”</text><rect x="1020" y="636" width="580" height="140" rx="12" fill="#1A1A1A" stroke="#2A2A2A" stroke-width="2"/><text x="1050" y="674" font-family="Inter, DejaVu Sans, sans-serif" font-size="16" font-weight="600" fill="#A0A0A0" text-anchor="start" letter-spacing="1.9">RESPOSTA</text><text x="1050" y="726" font-family="Inter, DejaVu Sans, sans-serif" font-size="25" font-weight="400" fill="#FFFFFF" text-anchor="start" font-style="italic">“a antiga deixava passar senha vazia.”</text><text x="960.0" y="950" font-family="Inter, DejaVu Sans, sans-serif" font-size="37" font-weight="400" fill="#FFFFFF" text-anchor="middle" font-style="italic">“Tenho uma branch pronta. Olha o que mudei. Posso juntar na main?”</text><text x="110" y="1038" font-family="Inter, DejaVu Sans, sans-serif" font-size="21" fill="#666666">guifav.github.io   ·   guilhermefavaron.com.br   ·   youtube: ia-aplicada</text></svg>