<svg xmlns="http://www.w3.org/2000/svg" width="1920" height="1080" viewBox="0 0 1920 1080"><defs><radialGradient id="g1"><stop offset="0%" stop-color="#FFBE00" stop-opacity="0.11"/><stop offset="70%" stop-color="#FFBE00" stop-opacity="0.044"/><stop offset="100%" stop-color="#FFBE00" stop-opacity="0"/></radialGradient></defs><rect width="1920" height="1080" fill="#000000"/><line x1="0" y1="0" x2="0" y2="1080" stroke="#FFFFFF" stroke-opacity="0.03" stroke-width="1"/><line x1="60" y1="0" x2="60" y2="1080" stroke="#FFFFFF" stroke-opacity="0.03" stroke-width="1"/><line x1="120" y1="0" x2="120" y2="1080" stroke="#FFFFFF" stroke-opacity="0.03" stroke-width="1"/><line x1="180" y1="0" x2="180" y2="1080" stroke="#FFFFFF" stroke-opacity="0.03" stroke-width="1"/><line x1="240" y1="0" x2="240" y2="1080" stroke="#FFFFFF" stroke-opacity="0.03" stroke-width="1"/><line x1="300" y1="0" x2="300" y2="1080" stroke="#FFFFFF" stroke-opacity="0.03" stroke-width="1"/><line x1="360" y1="0" x2="360" y2="1080" stroke="#FFFFFF" stroke-opacity="0.03" stroke-width="1"/><line x1="420" y1="0" x2="420" y2="1080" stroke="#FFFFFF" stroke-opacity="0.03" stroke-width="1"/><line x1="480" y1="0" x2="480" y2="1080" stroke="#FFFFFF" stroke-opacity="0.03" stroke-width="1"/><line x1="540" y1="0" x2="540" y2="1080" stroke="#FFFFFF" stroke-opacity="0.03" stroke-width="1"/><line x1="600" y1="0" x2="600" y2="1080" stroke="#FFFFFF" stroke-opacity="0.03" stroke-width="1"/><line x1="660" y1="0" x2="660" y2="1080" stroke="#FFFFFF" stroke-opacity="0.03" stroke-width="1"/><line x1="720" y1="0" x2="720" y2="1080" stroke="#FFFFFF" stroke-opacity="0.03" stroke-width="1"/><line x1="780" y1="0" x2="780" y2="1080" stroke="#FFFFFF" stroke-opacity="0.03" stroke-width="1"/><line x1="840" y1="0" x2="840" y2="1080" stroke="#FFFFFF" stroke-opacity="0.03" stroke-width="1"/><line x1="900" y1="0" x2="900" y2="1080" stroke="#FFFFFF" stroke-opacity="0.03" stroke-width="1"/><line x1="960" y1="0" x2="960" y2="1080" stroke="#FFFFFF" stroke-opacity="0.03" stroke-width="1"/><line x1="1020" y1="0" x2="1020" y2="1080" stroke="#FFFFFF" stroke-opacity="0.03" stroke-width="1"/><line x1="1080" y1="0" x2="1080" y2="1080" stroke="#FFFFFF" stroke-opacity="0.03" stroke-width="1"/><line x1="1140" y1="0" x2="1140" y2="1080" stroke="#FFFFFF" stroke-opacity="0.03" stroke-width="1"/><line x1="1200" y1="0" x2="1200" y2="1080" stroke="#FFFFFF" stroke-opacity="0.03" stroke-width="1"/><line x1="1260" y1="0" x2="1260" y2="1080" stroke="#FFFFFF" stroke-opacity="0.03" stroke-width="1"/><line x1="1320" y1="0" x2="1320" y2="1080" stroke="#FFFFFF" stroke-opacity="0.03" stroke-width="1"/><line x1="1380" y1="0" x2="1380" y2="1080" stroke="#FFFFFF" stroke-opacity="0.03" stroke-width="1"/><line x1="1440" y1="0" x2="1440" y2="1080" stroke="#FFFFFF" stroke-opacity="0.03" stroke-width="1"/><line x1="1500" y1="0" x2="1500" y2="1080" stroke="#FFFFFF" stroke-opacity="0.03" stroke-width="1"/><line x1="1560" y1="0" x2="1560" y2="1080" stroke="#FFFFFF" stroke-opacity="0.03" stroke-width="1"/><line x1="1620" y1="0" x2="1620" y2="1080" stroke="#FFFFFF" stroke-opacity="0.03" stroke-width="1"/><line x1="1680" y1="0" x2="1680" y2="1080" stroke="#FFFFFF" stroke-opacity="0.03" stroke-width="1"/><line x1="1740" y1="0" x2="1740" y2="1080" stroke="#FFFFFF" stroke-opacity="0.03" stroke-width="1"/><line x1="1800" y1="0" x2="1800" y2="1080" stroke="#FFFFFF" stroke-opacity="0.03" stroke-width="1"/><line x1="1860" y1="0" x2="1860" y2="1080" stroke="#FFFFFF" stroke-opacity="0.03" stroke-width="1"/><line x1="1920" y1="0" x2="1920" y2="1080" stroke="#FFFFFF" stroke-opacity="0.03" stroke-width="1"/><line x1="0" y1="0" x2="1920" y2="0" stroke="#FFFFFF" stroke-opacity="0.03" stroke-width="1"/><line x1="0" y1="60" x2="1920" y2="60" stroke="#FFFFFF" stroke-opacity="0.03" stroke-width="1"/><line x1="0" y1="120" x2="1920" y2="120" stroke="#FFFFFF" stroke-opacity="0.03" stroke-width="1"/><line x1="0" y1="180" x2="1920" y2="180" stroke="#FFFFFF" stroke-opacity="0.03" stroke-width="1"/><line x1="0" y1="240" x2="1920" y2="240" stroke="#FFFFFF" stroke-opacity="0.03" stroke-width="1"/><line x1="0" y1="300" x2="1920" y2="300" stroke="#FFFFFF" stroke-opacity="0.03" stroke-width="1"/><line x1="0" y1="360" x2="1920" y2="360" stroke="#FFFFFF" stroke-opacity="0.03" stroke-width="1"/><line x1="0" y1="420" x2="1920" y2="420" stroke="#FFFFFF" stroke-opacity="0.03" stroke-width="1"/><line x1="0" y1="480" x2="1920" y2="480" stroke="#FFFFFF" stroke-opacity="0.03" stroke-width="1"/><line x1="0" y1="540" x2="1920" y2="540" stroke="#FFFFFF" stroke-opacity="0.03" stroke-width="1"/><line x1="0" y1="600" x2="1920" y2="600" stroke="#FFFFFF" stroke-opacity="0.03" stroke-width="1"/><line x1="0" y1="660" x2="1920" y2="660" stroke="#FFFFFF" stroke-opacity="0.03" stroke-width="1"/><line x1="0" y1="720" x2="1920" y2="720" stroke="#FFFFFF" stroke-opacity="0.03" stroke-width="1"/><line x1="0" y1="780" x2="1920" y2="780" stroke="#FFFFFF" stroke-opacity="0.03" stroke-width="1"/><line x1="0" y1="840" x2="1920" y2="840" stroke="#FFFFFF" stroke-opacity="0.03" stroke-width="1"/><line x1="0" y1="900" x2="1920" y2="900" stroke="#FFFFFF" stroke-opacity="0.03" stroke-width="1"/><line x1="0" y1="960" x2="1920" y2="960" stroke="#FFFFFF" stroke-opacity="0.03" stroke-width="1"/><line x1="0" y1="1020" x2="1920" y2="1020" stroke="#FFFFFF" stroke-opacity="0.03" stroke-width="1"/><line x1="0" y1="1080" x2="1920" y2="1080" stroke="#FFFFFF" stroke-opacity="0.03" stroke-width="1"/><text x="110" y="112" font-family="Inter, DejaVu Sans, sans-serif" font-size="24" font-weight="600" fill="#FFBE00" text-anchor="start" letter-spacing="2.9">EP 02 · FRONT-END E ESTADO</text><text x="1810" y="112" font-family="Inter, DejaVu Sans, sans-serif" font-size="24" font-weight="600" fill="#666666" text-anchor="end" letter-spacing="2.9">PRANCHA 13/13</text><text x="960.0" y="230" font-family="Inter, DejaVu Sans, sans-serif" font-size="54" font-weight="800" fill="#FFFFFF" text-anchor="middle" letter-spacing="-1.4">O ciclo no centro, os estados em volta</text><circle cx="960.0" cy="545.0" r="340" fill="url(#g1)"/><rect x="280.0" y="470" width="380" height="150" rx="16" fill="#0D0D0D" stroke="#2A2A2A" stroke-width="2"/><text x="470.0" y="553.0" font-family="Inter, DejaVu Sans, sans-serif" font-size="24" font-weight="600" fill="#A0A0A0" text-anchor="middle" letter-spacing="2.9">EVENTO</text><line x1="672.0" y1="545.0" x2="758.0" y2="545.0" stroke="#FFFFFF" stroke-width="2.5"/><path d="M758.0 545.0 L745.4 551.1 L745.4 538.9 Z" fill="#FFFFFF"/><rect x="770.0" y="470" width="380" height="150" rx="16" fill="#0D0D0D" stroke="#2A2A2A" stroke-width="2"/><text x="960.0" y="553.0" font-family="Inter, DejaVu Sans, sans-serif" font-size="24" font-weight="600" fill="#FFBE00" text-anchor="middle" letter-spacing="2.9">ESTADO</text><line x1="1162.0" y1="545.0" x2="1248.0" y2="545.0" stroke="#FFFFFF" stroke-width="2.5"/><path d="M1248.0 545.0 L1235.4 551.1 L1235.4 538.9 Z" fill="#FFFFFF"/><rect x="1260.0" y="470" width="380" height="150" rx="16" fill="#0D0D0D" stroke="#2A2A2A" stroke-width="2"/><text x="1450.0" y="553.0" font-family="Inter, DejaVu Sans, sans-serif" font-size="24" font-weight="600" fill="#A0A0A0" text-anchor="middle" letter-spacing="2.9">RE-RENDER</text><path d="M1450.0 620 V 700 H 470.0 V 634" fill="none" stroke="#2A2A2A" stroke-width="2"/><line x1="470.0" y1="660" x2="470.0" y2="632" stroke="#A0A0A0" stroke-width="2"/><path d="M470.0 632 L476.1 644.6 L463.9 644.6 Z" fill="#A0A0A0"/><text x="960.0" y="692" font-family="Inter, DejaVu Sans, sans-serif" font-size="18" font-weight="600" fill="#666666" text-anchor="middle" letter-spacing="2.2">A CADA INTERAÇÃO, O CICLO REPETE</text><rect x="280.278" y="351.1" width="159.444" height="41.800000000000004" rx="9999" fill="#1A1A1A" stroke="#2A2A2A" stroke-width="1.5"/><text x="360" y="378.84" font-family="Inter, DejaVu Sans, sans-serif" font-size="19" font-weight="600" fill="#A0A0A0" text-anchor="middle" letter-spacing="2.3">LOADING</text><rect x="596.77" y="351.1" width="126.46" height="41.800000000000004" rx="9999" fill="#1A1A1A" stroke="#2A2A2A" stroke-width="1.5"/><text x="660" y="378.84" font-family="Inter, DejaVu Sans, sans-serif" font-size="19" font-weight="600" fill="#A0A0A0" text-anchor="middle" letter-spacing="2.3">EMPTY</text><rect x="896.77" y="351.1" width="126.46" height="41.800000000000004" rx="9999" fill="#1A1A1A" stroke="#2A2A2A" stroke-width="1.5"/><text x="960" y="378.84" font-family="Inter, DejaVu Sans, sans-serif" font-size="19" font-weight="600" fill="#A0A0A0" text-anchor="middle" letter-spacing="2.3">ERROR</text><rect x="1180.278" y="351.1" width="159.444" height="41.800000000000004" rx="9999" fill="#1A1A1A" stroke="#2A2A2A" stroke-width="1.5"/><text x="1260" y="378.84" font-family="Inter, DejaVu Sans, sans-serif" font-size="19" font-weight="600" fill="#A0A0A0" text-anchor="middle" letter-spacing="2.3">PARTIAL</text><rect x="1496.77" y="351.1" width="126.46" height="41.800000000000004" rx="9999" fill="#1A1A1A" stroke="#2A2A2A" stroke-width="1.5"/><text x="1560" y="378.84" font-family="Inter, DejaVu Sans, sans-serif" font-size="19" font-weight="600" fill="#A0A0A0" text-anchor="middle" letter-spacing="2.3">STALE</text><text x="960.0" y="830" font-family="Inter, DejaVu Sans, sans-serif" font-size="28" font-weight="400" fill="#A0A0A0" text-anchor="middle">O ciclo desenha a tela. Os cinco estados decidem o que ela mostra.</text><text x="960.0" y="950" font-family="Inter, DejaVu Sans, sans-serif" font-size="37" font-weight="400" fill="#FFFFFF" text-anchor="middle" font-style="italic">O ciclo é simples. Os cinco estados são o que a IA esquece.</text><text x="110" y="1038" font-family="Inter, DejaVu Sans, sans-serif" font-size="21" fill="#666666">guifav.github.io   ·   guilhermefavaron.com.br   ·   youtube: ia-aplicada</text></svg>