<svg xmlns="http://www.w3.org/2000/svg" width="1920" height="1080" viewBox="0 0 1920 1080"><defs><radialGradient id="g1"><stop offset="0%" stop-color="#FFBE00" stop-opacity="0.11"/><stop offset="70%" stop-color="#FFBE00" stop-opacity="0.044"/><stop offset="100%" stop-color="#FFBE00" stop-opacity="0"/></radialGradient></defs><rect width="1920" height="1080" fill="#000000"/><line x1="0" y1="0" x2="0" y2="1080" stroke="#FFFFFF" stroke-opacity="0.03" stroke-width="1"/><line x1="60" y1="0" x2="60" y2="1080" stroke="#FFFFFF" stroke-opacity="0.03" stroke-width="1"/><line x1="120" y1="0" x2="120" y2="1080" stroke="#FFFFFF" stroke-opacity="0.03" stroke-width="1"/><line x1="180" y1="0" x2="180" y2="1080" stroke="#FFFFFF" stroke-opacity="0.03" stroke-width="1"/><line x1="240" y1="0" x2="240" y2="1080" stroke="#FFFFFF" stroke-opacity="0.03" stroke-width="1"/><line x1="300" y1="0" x2="300" y2="1080" stroke="#FFFFFF" stroke-opacity="0.03" stroke-width="1"/><line x1="360" y1="0" x2="360" y2="1080" stroke="#FFFFFF" stroke-opacity="0.03" stroke-width="1"/><line x1="420" y1="0" x2="420" y2="1080" stroke="#FFFFFF" stroke-opacity="0.03" stroke-width="1"/><line x1="480" y1="0" x2="480" y2="1080" stroke="#FFFFFF" stroke-opacity="0.03" stroke-width="1"/><line x1="540" y1="0" x2="540" y2="1080" stroke="#FFFFFF" stroke-opacity="0.03" stroke-width="1"/><line x1="600" y1="0" x2="600" y2="1080" stroke="#FFFFFF" stroke-opacity="0.03" stroke-width="1"/><line x1="660" y1="0" x2="660" y2="1080" stroke="#FFFFFF" stroke-opacity="0.03" stroke-width="1"/><line x1="720" y1="0" x2="720" y2="1080" stroke="#FFFFFF" stroke-opacity="0.03" stroke-width="1"/><line x1="780" y1="0" x2="780" y2="1080" stroke="#FFFFFF" stroke-opacity="0.03" stroke-width="1"/><line x1="840" y1="0" x2="840" y2="1080" stroke="#FFFFFF" stroke-opacity="0.03" stroke-width="1"/><line x1="900" y1="0" x2="900" y2="1080" stroke="#FFFFFF" stroke-opacity="0.03" stroke-width="1"/><line x1="960" y1="0" x2="960" y2="1080" stroke="#FFFFFF" stroke-opacity="0.03" stroke-width="1"/><line x1="1020" y1="0" x2="1020" y2="1080" stroke="#FFFFFF" stroke-opacity="0.03" stroke-width="1"/><line x1="1080" y1="0" x2="1080" y2="1080" stroke="#FFFFFF" stroke-opacity="0.03" stroke-width="1"/><line x1="1140" y1="0" x2="1140" y2="1080" stroke="#FFFFFF" stroke-opacity="0.03" stroke-width="1"/><line x1="1200" y1="0" x2="1200" y2="1080" stroke="#FFFFFF" stroke-opacity="0.03" stroke-width="1"/><line x1="1260" y1="0" x2="1260" y2="1080" stroke="#FFFFFF" stroke-opacity="0.03" stroke-width="1"/><line x1="1320" y1="0" x2="1320" y2="1080" stroke="#FFFFFF" stroke-opacity="0.03" stroke-width="1"/><line x1="1380" y1="0" x2="1380" y2="1080" stroke="#FFFFFF" stroke-opacity="0.03" stroke-width="1"/><line x1="1440" y1="0" x2="1440" y2="1080" stroke="#FFFFFF" stroke-opacity="0.03" stroke-width="1"/><line x1="1500" y1="0" x2="1500" y2="1080" stroke="#FFFFFF" stroke-opacity="0.03" stroke-width="1"/><line x1="1560" y1="0" x2="1560" y2="1080" stroke="#FFFFFF" stroke-opacity="0.03" stroke-width="1"/><line x1="1620" y1="0" x2="1620" y2="1080" stroke="#FFFFFF" stroke-opacity="0.03" stroke-width="1"/><line x1="1680" y1="0" x2="1680" y2="1080" stroke="#FFFFFF" stroke-opacity="0.03" stroke-width="1"/><line x1="1740" y1="0" x2="1740" y2="1080" stroke="#FFFFFF" stroke-opacity="0.03" stroke-width="1"/><line x1="1800" y1="0" x2="1800" y2="1080" stroke="#FFFFFF" stroke-opacity="0.03" stroke-width="1"/><line x1="1860" y1="0" x2="1860" y2="1080" stroke="#FFFFFF" stroke-opacity="0.03" stroke-width="1"/><line x1="1920" y1="0" x2="1920" y2="1080" stroke="#FFFFFF" stroke-opacity="0.03" stroke-width="1"/><line x1="0" y1="0" x2="1920" y2="0" stroke="#FFFFFF" stroke-opacity="0.03" stroke-width="1"/><line x1="0" y1="60" x2="1920" y2="60" stroke="#FFFFFF" stroke-opacity="0.03" stroke-width="1"/><line x1="0" y1="120" x2="1920" y2="120" stroke="#FFFFFF" stroke-opacity="0.03" stroke-width="1"/><line x1="0" y1="180" x2="1920" y2="180" stroke="#FFFFFF" stroke-opacity="0.03" stroke-width="1"/><line x1="0" y1="240" x2="1920" y2="240" stroke="#FFFFFF" stroke-opacity="0.03" stroke-width="1"/><line x1="0" y1="300" x2="1920" y2="300" stroke="#FFFFFF" stroke-opacity="0.03" stroke-width="1"/><line x1="0" y1="360" x2="1920" y2="360" stroke="#FFFFFF" stroke-opacity="0.03" stroke-width="1"/><line x1="0" y1="420" x2="1920" y2="420" stroke="#FFFFFF" stroke-opacity="0.03" stroke-width="1"/><line x1="0" y1="480" x2="1920" y2="480" stroke="#FFFFFF" stroke-opacity="0.03" stroke-width="1"/><line x1="0" y1="540" x2="1920" y2="540" stroke="#FFFFFF" stroke-opacity="0.03" stroke-width="1"/><line x1="0" y1="600" x2="1920" y2="600" stroke="#FFFFFF" stroke-opacity="0.03" stroke-width="1"/><line x1="0" y1="660" x2="1920" y2="660" stroke="#FFFFFF" stroke-opacity="0.03" stroke-width="1"/><line x1="0" y1="720" x2="1920" y2="720" stroke="#FFFFFF" stroke-opacity="0.03" stroke-width="1"/><line x1="0" y1="780" x2="1920" y2="780" stroke="#FFFFFF" stroke-opacity="0.03" stroke-width="1"/><line x1="0" y1="840" x2="1920" y2="840" stroke="#FFFFFF" stroke-opacity="0.03" stroke-width="1"/><line x1="0" y1="900" x2="1920" y2="900" stroke="#FFFFFF" stroke-opacity="0.03" stroke-width="1"/><line x1="0" y1="960" x2="1920" y2="960" stroke="#FFFFFF" stroke-opacity="0.03" stroke-width="1"/><line x1="0" y1="1020" x2="1920" y2="1020" stroke="#FFFFFF" stroke-opacity="0.03" stroke-width="1"/><line x1="0" y1="1080" x2="1920" y2="1080" stroke="#FFFFFF" stroke-opacity="0.03" stroke-width="1"/><text x="110" y="112" font-family="Inter, DejaVu Sans, sans-serif" font-size="24" font-weight="600" fill="#FFBE00" text-anchor="start" letter-spacing="2.9">EP 03 · REQUEST, RESPONSE E API</text><text x="1810" y="112" font-family="Inter, DejaVu Sans, sans-serif" font-size="24" font-weight="600" fill="#666666" text-anchor="end" letter-spacing="2.9">PRANCHA 03/12</text><text x="960.0" y="230" font-family="Inter, DejaVu Sans, sans-serif" font-size="54" font-weight="800" fill="#FFFFFF" text-anchor="middle" letter-spacing="-1.4">Endpoint: cada URL é uma porta</text><circle cx="1420" cy="600" r="340" fill="url(#g1)"/><rect x="160" y="440" width="400" height="300" rx="16" fill="#0D0D0D" stroke="#2A2A2A" stroke-width="2"/><text x="360.0" y="484" font-family="Inter, DejaVu Sans, sans-serif" font-size="20" font-weight="600" fill="#A0A0A0" text-anchor="middle" letter-spacing="2.4">NAVEGADOR</text><text x="360" y="585" font-family="Inter, DejaVu Sans, sans-serif" font-size="30" font-weight="700" fill="#FFFFFF" text-anchor="middle">a URL diz</text><text x="360" y="630" font-family="Inter, DejaVu Sans, sans-serif" font-size="24" font-weight="400" fill="#A0A0A0" text-anchor="middle">em qual porta bater</text><rect x="1080" y="340" width="680" height="520" rx="16" fill="#0D0D0D" stroke="#2A2A2A" stroke-width="2"/><text x="1420.0" y="384" font-family="Inter, DejaVu Sans, sans-serif" font-size="20" font-weight="600" fill="#A0A0A0" text-anchor="middle" letter-spacing="2.4">SERVIDOR</text><rect x="1130" y="430" width="400" height="96" rx="12" fill="#1A1A1A" stroke="#2A2A2A" stroke-width="2"/><text x="1160" y="472" font-family="Inter, DejaVu Sans, sans-serif" font-size="28" font-weight="600" fill="#FFFFFF" text-anchor="start">/api/produtos</text><text x="1160" y="504" font-family="Inter, DejaVu Sans, sans-serif" font-size="20" font-weight="400" fill="#A0A0A0" text-anchor="start">devolve a lista de produtos</text><rect x="1130" y="556" width="400" height="96" rx="12" fill="#1A1A1A" stroke="#2A2A2A" stroke-width="2"/><text x="1160" y="598" font-family="Inter, DejaVu Sans, sans-serif" font-size="28" font-weight="600" fill="#FFFFFF" text-anchor="start">/api/usuarios</text><text x="1160" y="630" font-family="Inter, DejaVu Sans, sans-serif" font-size="20" font-weight="400" fill="#A0A0A0" text-anchor="start">devolve a lista de usuários</text><rect x="1130" y="682" width="400" height="96" rx="12" fill="#1A1A1A" stroke="#2A2A2A" stroke-width="2"/><text x="1160" y="724" font-family="Inter, DejaVu Sans, sans-serif" font-size="28" font-weight="600" fill="#FFFFFF" text-anchor="start">/api/pedidos</text><text x="1160" y="756" font-family="Inter, DejaVu Sans, sans-serif" font-size="20" font-weight="400" fill="#A0A0A0" text-anchor="start">devolve os pedidos</text><text x="1420" y="826" font-family="Inter, DejaVu Sans, sans-serif" font-size="22" font-weight="600" fill="#FFBE00" text-anchor="middle" letter-spacing="2.6">ENDPOINTS · AS PORTAS</text><line x1="600" y1="530" x2="1110" y2="478" stroke="#A0A0A0" stroke-width="2.5"/><path d="M1110 478 L1098.1 485.3 L1096.8 473.2 Z" fill="#A0A0A0"/><line x1="600" y1="590" x2="1110" y2="604" stroke="#A0A0A0" stroke-width="2.5"/><path d="M1110 604 L1097.2 609.7 L1097.6 597.6 Z" fill="#A0A0A0"/><line x1="600" y1="650" x2="1110" y2="730" stroke="#A0A0A0" stroke-width="2.5"/><path d="M1110 730 L1096.6 734.1 L1098.5 722.0 Z" fill="#A0A0A0"/><text x="960.0" y="950" font-family="Inter, DejaVu Sans, sans-serif" font-size="37" font-weight="400" fill="#FFFFFF" text-anchor="middle" font-style="italic">Você não pede sanduíche no caixa eletrônico. Cada porta atende um pedido.</text><text x="110" y="1038" font-family="Inter, DejaVu Sans, sans-serif" font-size="21" fill="#666666">guifav.github.io   ·   guilhermefavaron.com.br   ·   youtube: ia-aplicada</text></svg>